<?xml version="1.0" encoding="UTF-8" standalone="no"?>
<!-- Created with Inkscape (http://www.inkscape.org/) -->

<svg
   xmlns:dc="http://purl.org/dc/elements/1.1/"
   xmlns:cc="http://creativecommons.org/ns#"
   xmlns:rdf="http://www.w3.org/1999/02/22-rdf-syntax-ns#"
   xmlns:svg="http://www.w3.org/2000/svg"
   xmlns="http://www.w3.org/2000/svg"
   xmlns:sodipodi="http://sodipodi.sourceforge.net/DTD/sodipodi-0.dtd"
   xmlns:inkscape="http://www.inkscape.org/namespaces/inkscape"
   id="svg2"
   version="1.1"
   inkscape:version="0.48+devel r10001"
   width="1488.1875"
   height="885.82625"
   xml:space="preserve"
   sodipodi:docname="vtf-hangul.svg"><metadata
     id="metadata8"><rdf:RDF><cc:Work
         rdf:about=""><dc:format>image/svg+xml</dc:format><dc:type
           rdf:resource="http://purl.org/dc/dcmitype/StillImage" /><dc:title /></cc:Work></rdf:RDF></metadata><defs
     id="defs6"><inkscape:perspective
       sodipodi:type="inkscape:persp3d"
       inkscape:vp_x="0 : 0.5 : 1"
       inkscape:vp_y="0 : 1000 : 0"
       inkscape:vp_z="1 : 0.5 : 1"
       inkscape:persp3d-origin="0.5 : 0.33333333 : 1"
       id="perspective10" /><clipPath
       clipPathUnits="userSpaceOnUse"
       id="clipPath62"><path
         d="m 0,708.661 1190.551,0 L 1190.551,0 0,0 0,708.661 z"
         id="path64" /></clipPath></defs><sodipodi:namedview
     pagecolor="#ffffff"
     bordercolor="#666666"
     borderopacity="1"
     objecttolerance="10"
     gridtolerance="10"
     guidetolerance="10"
     inkscape:pageopacity="0"
     inkscape:pageshadow="2"
     inkscape:window-width="1920"
     inkscape:window-height="946"
     id="namedview4"
     showgrid="false"
     inkscape:zoom="3.6108377"
     inkscape:cx="360.85122"
     inkscape:cy="521.56668"
     inkscape:window-x="0"
     inkscape:window-y="0"
     inkscape:window-maximized="0"
     inkscape:current-layer="g368"
     showguides="true"
     inkscape:guide-bbox="true"><sodipodi:guide
       orientation="0,1"
       position="303.25373,643.06407"
       id="guide185" /><sodipodi:guide
       orientation="0,1"
       position="543.36422,637.24825"
       id="guide187" /></sodipodi:namedview><g
     id="g12"
     inkscape:groupmode="layer"
     inkscape:label="vtf-hangul"
     transform="matrix(1.25,0,0,-1.25,0,885.82625)"><g
       id="g14"
       transform="translate(192,599.7715)"><path
         d="m 0,0 0,4.5 -18,0 0,-4.5 0,0 0,-18 4.5,0 0,0 13.5,0 0,4.5 -13.5,0 0,4.5 9,0 0,4.5 -9,0 0,4.5 L 0,0 z"
         style="fill:#231f20;fill-opacity:1;fill-rule:nonzero;stroke:none"
         id="path16" /></g><path
       d="m 201,590.772 13.499,0 0,4.5 -13.499,0 0,-4.5 z m 0,-27.001 4.5,0 0,22.5 -4.5,0 0,-22.5 z m 0,36 18,0 0,4.5 -18,0 0,-4.5 z"
       style="fill:#231f20;fill-opacity:1;fill-rule:nonzero;stroke:none"
       id="path18" /><g
       id="g20"
       transform="translate(273,613.2715)"><path
         style="fill:#231f20;fill-opacity:1;fill-rule:nonzero;stroke:none"
         d="M 324.375 119.25 L 324.375 158.625 L 330 158.625 L 330 136.125 L 341.25 136.125 L 341.25 158.625 L 346.875 158.625 L 346.875 119.25 L 341.25 119.25 L 341.25 130.5 L 330 130.5 L 330 119.25 L 324.375 119.25 z "
         transform="matrix(0.8,0,0,-0.8,-273,95.3895)"
         id="path22" /></g><path
       d="m 363,590.772 4.5,0 0,4.5 -4.5,0 0,-4.5 z m -9,13.499 0,-22.499 4.5,0 0,17.999 13.66,0 0,-17.999 4.5,0 0,22.499 -22.66,0 z"
       style="fill:#231f20;fill-opacity:1;fill-rule:nonzero;stroke:none"
       id="path24" /><g
       id="g26"
       transform="translate(385.5,604.2715)"><path
         d="m 0,0 0,-22.5 4.5,0 0,18 9,0 0,-18 4.5,0 L 18,0 0,0 z"
         style="fill:#231f20;fill-opacity:1;fill-rule:nonzero;stroke:none"
         id="path28" /></g><g
       id="g30"
       transform="translate(543.1602,586.2715)"><path
         d="m 0,0 -13.5,0 0,-4.5 18,0 L 4.5,9 0,9 0,0 z m -13.5,18 0,-13.5 4.5,0 0,9 13.5,0 0,4.5 -18,0 z"
         style="fill:#231f20;fill-opacity:1;fill-rule:nonzero;stroke:none"
         id="path32" /></g><g
       id="g34"
       transform="translate(727.5,590.7715)"><path
         d="m 0,0 -4.5,0 0,-4.5 -0.032,0 0,-4.5 18,0 0,4.5 L 0,-4.5 0,0 z M 4.5,0 9,0 9,4.5 4.5,4.5 4.5,0 z m 8.968,9 0,4.5 -18,0 0,-4.5 L 9,9 9,4.5 l 4.5,0 0,4.5 -0.032,0 z"
         style="fill:#231f20;fill-opacity:1;fill-rule:nonzero;stroke:none"
         id="path36" /></g><g
       id="g38"
       transform="translate(673.5,590.7715)"><path
         d="m 0,0 0,-13.5 4.5,0 0,9 9,0 0,4.5 L 0,0 z m -4.5,13.5 0,-9 -9,0 0,-4.5 13.5,0 0,13.5 -4.5,0 z"
         style="fill:#231f20;fill-opacity:1;fill-rule:nonzero;stroke:none"
         id="path40" /></g><g
       id="g42"
       transform="translate(507,604.2715)"><path
         d="m 0,0 0,-22.5 4.5,0 0,18 9,0 0,4.5 L 0,0 z"
         style="fill:#231f20;fill-opacity:1;fill-rule:nonzero;stroke:none"
         id="path44" /></g><g
       id="g46"
       transform="translate(561,613.2715)"><path
         d="m 0,0 0,4.5 -4.5,0 0,-36 4.5,0 0,27 9,0 L 9,0 0,0 z"
         style="fill:#231f20;fill-opacity:1;fill-rule:nonzero;stroke:none"
         id="path48" /></g><path
       d="m 363,509.771 -4.5,0 0,36 4.5,0 0,-36 z"
       style="fill:#231f20;fill-opacity:1;fill-rule:nonzero;stroke:none"
       id="path50" /><path
       d="m 286.5,608.772 4.5,0 0,4.5 -4.5,0 0,-4.5 z m 0,-27 4.5,0 0,22.5 -4.5,0 0,-22.5 z"
       style="fill:#231f20;fill-opacity:1;fill-rule:nonzero;stroke:none"
       id="path52" /><g
       id="g54"
       transform="translate(300,568.272)"><path
         d="m 0,0 -4.5,0 0,-4.5 4.5,0 0,0 4.5,0 L 4.5,36 0,36 0,0 z m 0,40.5 4.5,0 0,4.5 -4.5,0 0,-4.5 z"
         style="fill:#231f20;fill-opacity:1;fill-rule:nonzero;stroke:none"
         id="path56" /></g><g
       id="g66"
       transform="translate(423.75,586.2725)"><path
         d="m 0,0 c -3.728,0 -6.75,3.022 -6.75,6.75 0,3.727 3.022,6.749 6.75,6.749 3.728,0 6.75,-3.022 6.75,-6.749 C 6.75,3.022 3.728,0 0,0 m 0,17.999 c -6.213,0 -11.25,-5.037 -11.25,-11.249 0,-6.213 5.037,-11.25 11.25,-11.25 6.213,0 11.25,5.037 11.25,11.25 0,6.212 -5.037,11.249 -11.25,11.249"
         style="fill:#231f20;fill-opacity:1;fill-rule:nonzero;stroke:none"
         id="path68" /></g><g
       id="g70"
       transform="translate(448.5,527.7725)"><path
         d="m 0,0 c -3.728,0 -6.75,3.022 -6.75,6.75 0,3.727 3.022,6.749 6.75,6.749 3.728,0 6.75,-3.022 6.75,-6.749 C 6.75,3.022 3.728,0 0,0 m 0,17.999 c -6.213,0 -11.25,-5.037 -11.25,-11.249 0,-6.213 5.037,-11.25 11.25,-11.25 6.213,0 11.25,5.037 11.25,11.25 0,6.212 -5.037,11.249 -11.25,11.249"
         style="fill:#231f20;fill-opacity:1;fill-rule:nonzero;stroke:none"
         id="path72" /></g><g
       id="g74"
       transform="translate(99.7485,586.272)"><path
         style="fill:#231f20;fill-opacity:1;fill-rule:nonzero;stroke:none"
         d="M 110.625 119.25 L 110.625 144.5625 C 110.625 152.32875 116.92125 158.625 124.6875 158.625 C 132.45375 158.625 138.75 152.32875 138.75 144.5625 C 138.75 136.7975 132.45375 130.5 124.6875 130.5 C 121.51656 130.5 118.60232 131.54184 116.25 133.3125 L 116.25 119.25 L 110.625 119.25 z M 124.6875 136.125 C 129.3475 136.125 133.125 139.90375 133.125 144.5625 C 133.125 149.2225 129.3475 153 124.6875 153 C 120.0275 153 116.25 149.2225 116.25 144.5625 C 116.25 139.90375 120.0275 136.125 124.6875 136.125 z "
         transform="matrix(0.8,0,0,-0.8,-99.7485,122.389)"
         id="path76" /></g><g
       id="g78"
       transform="translate(92.999,595.2715)" /><g
       id="g82"
       transform="translate(147.001,593.0215)"><path
         style="fill:#231f20;fill-opacity:1;fill-rule:nonzero;stroke:none"
         d="M 200.625 119.25 L 200.625 133.3125 C 198.27286 131.54175 195.35793 130.5 192.1875 130.5 C 184.42125 130.5 178.125 136.79625 178.125 144.5625 C 178.125 152.32875 184.42125 158.625 192.1875 158.625 C 199.9525 158.625 206.25 152.32875 206.25 144.5625 L 206.25 119.25 L 200.625 119.25 z M 192.1875 136.125 C 196.84625 136.125 200.625 139.9025 200.625 144.5625 C 200.625 149.2225 196.84625 153 192.1875 153 C 187.5275 153 183.75 149.2225 183.75 144.5625 C 183.75 139.9025 187.5275 136.125 192.1875 136.125 z "
         transform="matrix(0.8,0,0,-0.8,-147.001,115.6395)"
         id="path84" /></g><g
       id="g86"
       transform="translate(160.5,595.2715)" /><g
       id="g90"
       transform="translate(137.998,599.7715)"><path
         d="m 0,0 0,4.5 -18,0 0,-18 0,0 0,-4.5 18,0 0,4.5 -13.5,0 0,13.5 L 0,0 z"
         style="fill:#231f20;fill-opacity:1;fill-rule:nonzero;stroke:none"
         id="path92" /></g><g
       id="g94"
       transform="translate(68.2495,586.272)"><path
         d="m 0,0 c -3.728,0 -6.75,3.022 -6.75,6.75 0,3.727 3.022,6.749 6.75,6.749 3.728,0 6.75,-3.022 6.75,-6.749 C 6.75,3.022 3.728,0 0,0 m 6.75,18 0,-2.267 C 4.869,17.149 2.537,17.999 0,17.999 -6.213,17.999 -11.25,12.962 -11.25,6.75 -11.25,0.537 -6.213,-4.5 0,-4.5 c 2.537,0 4.869,0.85 6.75,2.266 l 0,-2.266 4.5,0 0,22.5 -4.5,0 z"
         style="fill:#231f20;fill-opacity:1;fill-rule:nonzero;stroke:none"
         id="path96" /></g><g
       id="g98"
       transform="translate(455.25,586.272)"><path
         d="m 0,0 c -3.728,0 -6.75,3.022 -6.75,6.75 0,3.727 3.022,6.749 6.75,6.749 3.728,0 6.75,-3.022 6.75,-6.749 C 6.75,3.022 3.728,0 0,0 m 0,17.999 c -6.213,0 -11.25,-5.037 -11.25,-11.249 l 0,-29.25 4.5,0 0,20.265 C -4.868,-3.651 -2.536,-4.5 0,-4.5 6.213,-4.5 11.25,0.537 11.25,6.75 11.25,12.962 6.213,17.999 0,17.999"
         style="fill:#231f20;fill-opacity:1;fill-rule:nonzero;stroke:none"
         id="path100" /></g><g
       id="g102"
       transform="translate(475.5,593.0215)"><path
         d="M 0,0 C 0,3.728 3.022,6.75 6.75,6.75 10.478,6.75 13.5,3.728 13.5,0 13.5,-3.728 10.478,-6.75 6.75,-6.75 3.022,-6.75 0,-3.728 0,0 m -4.5,0 c 0,-6.213 5.037,-11.25 11.25,-11.25 2.536,0 4.868,0.85 6.75,2.266 l 0,-20.266 4.5,0 L 18,0 C 18,6.213 12.963,11.25 6.75,11.25 0.537,11.25 -4.5,6.213 -4.5,0"
         style="fill:#231f20;fill-opacity:1;fill-rule:nonzero;stroke:none"
         id="path104" /></g><g
       id="g106"
       transform="translate(239.0898,566.9536)"><path
         d="M 0,0 3.182,-3.182 11.41,5.047 8.228,8.229 0,0 z M 8.308,17.149 -4.42,4.42 -1.238,1.238 11.49,13.967 8.308,17.149 z M -6.59,26.068 c 0,3.728 3.022,6.75 6.75,6.75 3.727,0 6.749,-3.022 6.749,-6.75 0,-3.727 -3.022,-6.749 -6.749,-6.749 -3.728,0 -6.75,3.022 -6.75,6.749 m 17.999,0 c 0,6.213 -5.036,11.25 -11.249,11.25 -6.213,0 -11.25,-5.037 -11.25,-11.25 0,-6.213 5.037,-11.249 11.25,-11.249 6.213,0 11.249,5.036 11.249,11.249"
         style="fill:#231f20;fill-opacity:1;fill-rule:nonzero;stroke:none"
         id="path108" /></g><g
       id="g110"
       transform="translate(330.728,602.1816)"><path
         d="M 0,0 -8.228,-8.229 -5.046,-11.41 3.182,-3.182 0,0 z m -3.728,-20.41 4.5,0 0,9 -4.5,0 0,-9 z m -9,0 4.5,0 0,31.5 -4.5,0 0,-31.5 z"
         style="fill:#231f20;fill-opacity:1;fill-rule:nonzero;stroke:none"
         id="path112" /></g><g
       id="g114"
       transform="translate(588.1602,604.2715)"><path
         d="m 0,0 0,-18 -9,0 0,18 -4.5,0 0,-22.5 18,0 L 4.5,0 0,0 z"
         style="fill:#231f20;fill-opacity:1;fill-rule:nonzero;stroke:none"
         id="path116" /></g><path
       d="m 615,590.772 4.5,0 0,13.5 -4.5,0 0,-13.5 z m -9,13.499 -4.5,0 0,-22.499 18,0 0,4.499 -13.5,0 0,18 z"
       style="fill:#231f20;fill-opacity:1;fill-rule:nonzero;stroke:none"
       id="path118" /><g
       id="g120"
       transform="translate(642,595.2715)"><path
         d="m 0,0 -4.5,0 0,-9 -4.5,0 0,18 -4.5,0 0,-22.5 18,0 0,4.5 L 0,-9 0,0 z M 4.5,-4.5 9,-4.5 9,9 4.5,9 4.5,-4.5 z"
         style="fill:#231f20;fill-opacity:1;fill-rule:nonzero;stroke:none"
         id="path122" /></g><g
       id="g124"
       transform="translate(709.5,599.7715)"><path
         d="m 0,0 0,-13.5 -8.872,0 0,18 -4.5,0 0,-22.5 L 0,-18 0,-36 4.5,-36 4.5,0 0,0 z"
         style="fill:#231f20;fill-opacity:1;fill-rule:nonzero;stroke:none"
         id="path126" /></g><path
       d="m 344.84,581.772 -4.5,0 0,31.5 4.5,0 0,-31.5 z"
       style="fill:#231f20;fill-opacity:1;fill-rule:nonzero;stroke:none"
       id="path128" /><g
       id="g130"
       transform="translate(653.25,545.77)"><path
         d="m 0,0 0,-4.5 c 3.728,0 6.75,-3.022 6.75,-6.75 0,-3.727 -3.022,-6.749 -6.75,-6.749 L 0,-18 l -4.5,0 0,18.001 -4.5,0 0,-22.5 9,0 c 6.213,0 11.25,5.037 11.25,11.249 C 11.25,-5.037 6.213,0 0,0"
         style="fill:#231f20;fill-opacity:1;fill-rule:nonzero;stroke:none"
         id="path132" /></g><g
       id="g134"
       transform="translate(414.75,545.771)"><path
         d="m 0,0 -9,0 0,-22.5 4.5,0 0,18 4.5,0 0,0 c 3.728,0 6.75,-3.022 6.75,-6.75 0,-3.727 -3.022,-6.749 -6.75,-6.749 l 0,-4.5 c 6.213,0 11.25,5.037 11.25,11.249 C 11.25,-5.037 6.213,0 0,0"
         style="fill:#231f20;fill-opacity:1;fill-rule:nonzero;stroke:none"
         id="path136" /></g><g
       id="g138"
       transform="translate(684.75,545.77)"><path
         d="m 0,0 0,-4.5 c 3.728,0 6.75,-3.022 6.75,-6.75 0,-3.727 -3.022,-6.749 -6.75,-6.749 l 0,9 -4.5,0 0,-9.001 -4.5,0 0,18.001 -4.5,0 0,-22.5 9,0 0,0 4.5,0 0,0 c 6.213,0 11.25,5.037 11.25,11.249 C 11.25,-5.037 6.213,0 0,0"
         style="fill:#231f20;fill-opacity:1;fill-rule:nonzero;stroke:none"
         id="path140" /></g><g
       id="g142"
       transform="translate(385.5,545.771)"><path
         d="m 0,0 0,0 -4.5,0 0,0 -9,0 0,-22.5 4.5,0 0,18 4.5,0 0,-9 4.5,0 0,9 c 3.728,0 6.75,-3.022 6.75,-6.75 0,-3.727 -3.022,-6.749 -6.75,-6.749 l 0,-4.5 c 6.213,0 11.25,5.037 11.25,11.249 C 11.25,-5.037 6.213,0 0,0"
         style="fill:#231f20;fill-opacity:1;fill-rule:nonzero;stroke:none"
         id="path144" /></g><g
       id="g146"
       transform="translate(624,527.7715)"><path
         style="fill:#231f20;fill-opacity:1;fill-rule:nonzero;stroke:none"
         d="M 765.9375 203.625 L 765.9375 217.6875 C 765.9375 225.45375 772.23375 231.75 780 231.75 C 787.76625 231.75 794.0625 225.45375 794.0625 217.6875 L 794.0625 203.625 L 788.4375 203.625 L 788.4375 217.6875 C 788.4375 222.3475 784.66 226.125 780 226.125 C 775.34 226.125 771.5625 222.3475 771.5625 217.6875 L 771.5625 203.625 L 765.9375 203.625 z "
         transform="matrix(0.8,0,0,-0.8,-624,180.8895)"
         id="path148" /></g><g
       id="g150"
       transform="translate(306.75,527.7715)"><path
         d="m 0,0 c -3.728,0 -6.75,3.022 -6.75,6.75 l -4.5,0 C -11.25,0.537 -6.213,-4.5 0,-4.5 c 6.213,0 11.249,5.037 11.249,11.25 l -4.5,0 C 6.749,3.022 3.728,0 0,0 m 6.75,6.75 4.5,0 0,11.25 -4.5,0 0,-11.25 z"
         style="fill:#231f20;fill-opacity:1;fill-rule:nonzero;stroke:none"
         id="path152" /></g><g
       id="g154"
       transform="translate(344.9785,532.2715)"><path
         d="m 0,0 0.021,0 0,9 -4.5,0 0,-6.976 c -0.726,0.148 -1.48,0.226 -2.25,0.226 -2.536,0 -4.868,-0.85 -6.75,-2.266 l 0,13.516 -4.5,0 0,-22.5 4.501,0 c 0,3.728 3.021,6.75 6.749,6.75 3.727,0 6.75,-3.022 6.75,-6.75 l 4.5,0 C 4.521,-5.314 2.74,-2.052 0,0"
         style="fill:#231f20;fill-opacity:1;fill-rule:nonzero;stroke:none"
         id="path156" /></g><g
       id="g158"
       transform="translate(131.25,545.7705)"><path
         d="m 0,0 0,-4.5 c -3.728,0 -6.75,-3.022 -6.75,-6.75 0,-3.728 3.022,-6.749 6.75,-6.749 l 0,-4.5 c -6.213,0 -11.25,5.036 -11.25,11.249 C -11.25,-5.037 -6.213,0 0,0"
         style="fill:#231f20;fill-opacity:1;fill-rule:nonzero;stroke:none"
         id="path160" /></g><path
       d="m 288.75,523.271 -4.5,0 0,22.5 4.5,0 0,-22.5 z"
       style="fill:#231f20;fill-opacity:1;fill-rule:nonzero;stroke:none"
       id="path162" /><g
       id="g164"
       transform="translate(246,536.7715)"><path
         d="m 0,0 0,-8.999 c -3.728,0 -6.75,3.021 -6.75,6.749 0,3.728 3.022,6.75 6.75,6.75 L 0,9 c -6.213,0 -11.25,-5.037 -11.25,-11.25 0,-6.213 5.037,-11.249 11.25,-11.249 l 0,-10e-4 -0.001,0 c 0,-3.728 -3.021,-6.75 -6.749,-6.75 -3.728,0 -6.75,3.022 -6.75,6.75 l -4.5,0 c 0,-6.213 5.037,-11.25 11.25,-11.25 6.213,0 11.249,5.037 11.249,11.25 L 4.5,-13.5 4.5,0 0,0 z"
         style="fill:#231f20;fill-opacity:1;fill-rule:nonzero;stroke:none"
         id="path166" /></g><path
       d="m 142.5,523.271 4.5,0 0,22.5 -4.5,0 0,-22.5 z m 6.75,22.5 0,-4.5 c 3.727,0 6.75,-3.022 6.75,-6.75 0,-3.727 -3.023,-6.75 -6.75,-6.75 l 0,-4.5 c 6.212,0 11.25,5.038 11.25,11.25 0,6.213 -5.038,11.25 -11.25,11.25"
       style="fill:#231f20;fill-opacity:1;fill-rule:nonzero;stroke:none"
       id="path168" /><path
       d="m 75,523.271 4.5,0 0,22.5 -4.5,0 0,-22.5 z m -13.5,11.25 c 0,-6.212 5.037,-11.249 11.25,-11.249 l 0,4.5 c -3.728,0 -6.75,3.022 -6.75,6.749 0,3.728 3.022,6.75 6.75,6.75 l 0,4.5 c -6.213,0 -11.25,-5.037 -11.25,-11.25"
       style="fill:#231f20;fill-opacity:1;fill-rule:nonzero;stroke:none"
       id="path170" /><g
       id="g172"
       transform="translate(92.9995,528.1646)"><path
         style="fill:#231f20;fill-opacity:1;fill-rule:nonzero;stroke:none"
         d="M 110.625 203.625 L 110.625 243 L 116.25 243 C 124.01625 243 130.3125 236.70375 130.3125 228.9375 C 130.3125 225.63625 129.155 222.58625 127.25 220.1875 C 127.39875 219.3675 127.5 218.55 127.5 217.6875 C 127.5 210.885 122.66875 204.92875 116.25 203.625 L 110.625 203.625 z M 116.25 209.71875 C 119.00125 210.6925 121.0875 213.0625 121.6875 215.96875 C 120.0125 215.26375 118.1825 214.875 116.25 214.875 L 116.25 209.71875 z M 116.25 220.5 C 117.92 220.5 119.47125 220.975 120.78125 221.8125 C 119.78625 223.5725 118.18125 224.94125 116.25 225.625 L 116.25 220.5 z M 124.34375 226.53125 C 124.565 227.285 124.6875 228.11125 124.6875 228.9375 C 124.6875 233.5975 120.91 237.375 116.25 237.375 L 116.25 231.4375 C 119.49375 230.78 122.33 229.00375 124.34375 226.53125 z "
         transform="matrix(0.8,0,0,-0.8,-92.9995,180.4964)"
         id="path174" /></g><g
       id="g176"
       transform="translate(270.75,534.5215)"><path
         d="m 0,0 c -2.536,0 -4.869,-0.85 -6.75,-2.266 l 0,13.516 -4.5,0 0,-22.5 4.501,0 c 0,3.728 3.021,6.75 6.749,6.75 3.728,0 6.75,-3.022 6.75,-6.75 l 4.5,0 C 11.25,-5.037 6.213,0 0,0"
         style="fill:#231f20;fill-opacity:1;fill-rule:nonzero;stroke:none"
         id="path178" /></g><g
       id="g180"
       transform="translate(212.249,545.7715)"><path
         d="m 0,0 c -6.213,0 -11.249,-5.037 -11.249,-11.25 l 0,-24.75 4.5,0 0,13.5 9,0 0,4.5 -9,0 0,6.75 c 0,3.728 3.021,6.75 6.749,6.75 3.728,0 6.75,-3.022 6.75,-6.75 l 4.5,0 C 11.25,-5.037 6.213,0 0,0"
         style="fill:#231f20;fill-opacity:1;fill-rule:nonzero;stroke:none"
         id="path182" /></g><g
       id="g184"
       transform="translate(725.25,541.2715)"><path
         d="m 0,0 0,4.5 c -3.687,0 -6.948,-1.781 -9.001,-4.521 -2.052,2.739 -5.313,4.52 -8.999,4.52 l 0,-4.5 c 3.728,0 6.75,-3.022 6.75,-6.75 0,-3.728 -3.022,-6.749 -6.75,-6.749 l 0,-4.5 c 3.687,0 6.948,1.781 9.001,4.521 2.052,-2.739 5.313,-4.52 8.999,-4.52 l 0,4.5 c -3.728,0 -6.75,3.022 -6.75,6.749 C -6.75,-3.022 -3.728,0 0,0"
         style="fill:#231f20;fill-opacity:1;fill-rule:nonzero;stroke:none"
         id="path186" /></g><g
       id="g188"
       transform="translate(475.5,545.7715)"><path
         d="m 0,0 0,-4.5 c 3.728,0 6.75,-3.022 6.75,-6.75 0,-3.727 -3.022,-6.749 -6.75,-6.749 L 0,-18 l -2.25,0 0,9 -4.5,0 0,-27 4.5,0 0,13.5 2.25,0 0,0.001 c 6.213,0 11.25,5.037 11.25,11.249 C 11.25,-5.037 6.213,0 0,0"
         style="fill:#231f20;fill-opacity:1;fill-rule:nonzero;stroke:none"
         id="path190" /></g><g
       id="g192"
       transform="translate(565.5,527.771)"><path
         d="m 0,0 c -3.728,0 -6.75,3.022 -6.75,6.75 0,3.727 3.022,6.749 6.75,6.749 l 0,4.5 C -6.213,17.999 -11.25,12.962 -11.25,6.75 -11.25,0.537 -6.213,-4.5 0,-4.5 L 0,0 z M 0,9 0,4.5 c 3.728,0 6.75,-3.021 6.75,-6.749 0,-3.728 -3.022,-6.75 -6.75,-6.75 l 0,-4.5 c 6.213,0 11.25,5.037 11.25,11.25 C 11.25,3.964 6.213,9 0,9"
         style="fill:#231f20;fill-opacity:1;fill-rule:nonzero;stroke:none"
         id="path194" /></g><g
       id="g196"
       transform="translate(509.25,536.772)"><path
         d="m 0,0 0,-9 -2.25,0 0,-10e-4 c -3.728,0 -6.75,3.022 -6.75,6.75 0,3.727 3.022,6.749 6.75,6.749 l 0,4.5 c -6.213,0 -11.25,-5.037 -11.25,-11.249 0,-6.213 5.037,-11.25 11.25,-11.25 l 0,10e-4 2.25,0 0,-13.5 4.5,0 0,27 L 0,0 z"
         style="fill:#231f20;fill-opacity:1;fill-rule:nonzero;stroke:none"
         id="path198" /></g><g
       id="g200"
       transform="translate(603.75,545.7715)"><path
         d="m 0,0 -18,0 0,-4.5 4.517,0 c -1.417,-1.882 -2.267,-4.214 -2.267,-6.751 0,-6.213 5.037,-11.249 11.25,-11.249 l 0,4.5 c -3.728,0 -6.75,3.021 -6.75,6.749 0,3.728 3.022,6.75 6.75,6.75 l 0,0.001 4.5,0 0,4.5 z"
         style="fill:#231f20;fill-opacity:1;fill-rule:nonzero;stroke:none"
         id="path202" /></g><g
       id="g204"
       transform="translate(534.001,545.7715)"><path
         d="m 0,0 c -6.213,0 -11.25,-5.037 -11.25,-11.25 l -10e-4,0 0,-11.25 4.5,0 0,11.25 0.001,0 c 0,3.728 3.022,6.75 6.75,6.75 3.728,0 6.749,-3.022 6.749,-6.75 l 4.5,0 C 11.249,-5.037 6.213,0 0,0"
         style="fill:#231f20;fill-opacity:1;fill-rule:nonzero;stroke:none"
         id="path206" /></g><g
       id="g208"
       transform="translate(756.75,534.521)"><path
         d="m 0,0 -4.5,0 c 0,-2.938 -1.88,-5.43 -4.5,-6.357 l 0,17.607 -4.5,0 0,-17.607 C -16.12,-5.43 -18,-2.938 -18,0 l -4.5,0 c 0,-5.442 3.865,-9.981 9,-11.024 l 0,-13.726 4.5,0 0,13.726 C -3.865,-9.981 0,-5.442 0,0"
         style="fill:#231f20;fill-opacity:1;fill-rule:nonzero;stroke:none"
         id="path210" /></g><g
       id="g212"
       transform="translate(779.25,530.0215)"><path
         d="M 0,0 9,0 9,4.5 C 9,10.713 3.963,15.75 -2.25,15.75 -8.463,15.75 -13.5,10.713 -13.5,4.5 l 4.5,0 c 0,3.728 3.022,6.75 6.75,6.75 3.728,0 6.75,-3.022 6.75,-6.75 l -9,0 0,-4.5 -9,0 0,-4.5 c 0,-6.213 5.037,-11.25 11.25,-11.25 6.213,0 11.25,5.037 11.25,11.25 l -4.5,0 c 0,-3.728 -3.022,-6.75 -6.75,-6.75 -3.728,0 -6.75,3.022 -6.75,6.75 l 9,0 0,4.5 z"
         style="fill:#231f20;fill-opacity:1;fill-rule:nonzero;stroke:none"
         id="path214" /></g><g
       id="g216"
       transform="translate(192,541.2715)"><path
         d="m 0,0 0,4.5 -17.99,0 c -0.004,0 -0.007,0 -0.01,0 l 0,-4.5 0.01,0 c 3.723,-0.005 6.74,-3.025 6.74,-6.749 0,-3.728 -3.022,-6.75 -6.75,-6.75 l 0,-4.501 18,0 0,4.5 -9.016,0 c 0.986,1.31 1.702,2.834 2.04,4.5 l 2.476,0 0,4.5 -2.476,0 C -7.314,-2.834 -8.029,-1.31 -9.015,0 L 0,0 z"
         style="fill:#231f20;fill-opacity:1;fill-rule:nonzero;stroke:none"
         id="path218" /></g><g
       id="g236"
       transform="translate(101.25,451.2715)"><path
         d="m 0,0 c -3.728,0 -6.75,3.022 -6.75,6.75 0,3.727 3.022,6.749 6.75,6.749 3.728,0 6.75,-3.022 6.75,-6.749 C 6.75,3.022 3.728,0 0,0 m 0,17.999 c -6.213,0 -11.25,-5.037 -11.25,-11.249 0,-6.213 5.037,-11.25 11.25,-11.25 6.213,0 11.25,5.037 11.25,11.25 0,6.212 -5.037,11.249 -11.25,11.249"
         style="fill:#231f20;fill-opacity:1;fill-rule:nonzero;stroke:none"
         id="path238" /></g><g
       id="g240"
       transform="translate(290.25,433.2725)"><path
         d="m 0,0 c -3.728,0 -6.75,3.022 -6.75,6.75 0,3.727 3.022,6.749 6.75,6.749 3.728,0 6.75,-3.022 6.75,-6.749 C 6.75,3.022 3.728,0 0,0 m -6.75,24.749 c 0,3.727 3.022,6.749 6.75,6.749 3.728,0 6.75,-3.022 6.75,-6.749 0,-3.728 -3.022,-6.75 -6.75,-6.75 -3.728,0 -6.75,3.022 -6.75,6.75 m 13.479,-9 c 2.74,2.052 4.521,5.314 4.521,9 0,6.212 -5.037,11.249 -11.25,11.249 -6.213,0 -11.25,-5.037 -11.25,-11.249 0,-3.686 1.781,-6.948 4.521,-9 -2.74,-2.052 -4.521,-5.313 -4.521,-8.999 0,-6.213 5.037,-11.25 11.25,-11.25 6.213,0 11.25,5.037 11.25,11.25 0,3.686 -1.781,6.947 -4.521,8.999"
         style="fill:#231f20;fill-opacity:1;fill-rule:nonzero;stroke:none"
         id="path242" /></g><path
       d="m 126,437.772 -4.5,0 0,22.5 4.5,0 0,-22.5 z"
       style="fill:#231f20;fill-opacity:1;fill-rule:nonzero;stroke:none"
       id="path244" /><path
       d="m 76.5,419.772 -4.5,0 0,54 4.5,0 0,-54 z"
       style="fill:#231f20;fill-opacity:1;fill-rule:nonzero;stroke:none"
       id="path246" /><path
       d="m 348.75,437.772 -4.5,0 0,4.5 4.5,0 0,-4.5 z"
       style="fill:#231f20;fill-opacity:1;fill-rule:nonzero;stroke:none"
       id="path248" /><path
       d="m 369,437.772 4.5,0 0,4.5 -4.5,0 0,-4.5 z m -6.75,0 4.5,0 0,4.5 -4.5,0 0,-4.5 z m -6.75,0 4.5,0 0,4.5 -4.5,0 0,-4.5 z"
       style="fill:#231f20;fill-opacity:1;fill-rule:nonzero;stroke:none"
       id="path250" /><path
       d="m 553.5,446.771 4.5,0 0,22.5 -4.5,0 0,-22.5 z m 0,-8.999 4.5,0 0,4.5 -4.5,0 0,-4.5 z"
       style="fill:#231f20;fill-opacity:1;fill-rule:nonzero;stroke:none"
       id="path252" /><path
       d="m 380.25,437.772 4.5,0 0,4.5 -4.5,0 0,-4.5 z m 0,9 4.5,0 0,4.5 -4.5,0 0,-4.5 z"
       style="fill:#231f20;fill-opacity:1;fill-rule:nonzero;stroke:none"
       id="path254" /><path
       d="m 427.5,446.772 -9,0 0,4.5 9,0 0,-4.5 z"
       style="fill:#231f20;fill-opacity:1;fill-rule:nonzero;stroke:none"
       id="path256" /><path
       d="m 454.5,446.772 -18,0 0,4.5 18,0 0,-4.5 z"
       style="fill:#231f20;fill-opacity:1;fill-rule:nonzero;stroke:none"
       id="path258" /><path
       d="m 729,446.772 -22.5,0 0,4.5 22.5,0 0,-4.5 z"
       style="fill:#231f20;fill-opacity:1;fill-rule:nonzero;stroke:none"
       id="path260" /><path
       d="m 391.5,442.184 4.5,0 0,-13.324 -4.5,0 0,13.324 z"
       style="fill:#231f20;fill-opacity:1;fill-rule:nonzero;stroke:none"
       id="path262" /><path
       d="m 634.5,469.271 4.5,0 0,-6.574 -4.5,0 0,6.574 z"
       style="fill:#231f20;fill-opacity:1;fill-rule:nonzero;stroke:none"
       id="path264" /><path
       d="m 641.25,469.271 4.5,0 0,-6.574 -4.5,0 0,6.574 z"
       style="fill:#231f20;fill-opacity:1;fill-rule:nonzero;stroke:none"
       id="path266" /><path
       d="m 697.5,469.271 4.5,0 0,-6.574 -4.5,0 0,6.574 z"
       style="fill:#231f20;fill-opacity:1;fill-rule:nonzero;stroke:none"
       id="path268" /><path
       d="m 715.5,460.272 4.5,0 0,-22.324 -4.5,0 0,22.324 z"
       style="fill:#231f20;fill-opacity:1;fill-rule:nonzero;stroke:none"
       id="path270" /><path
       d="m 753.75,442.272 -18,0 0,4.5 18,0 0,-4.5 z"
       style="fill:#231f20;fill-opacity:1;fill-rule:nonzero;stroke:none"
       id="path272" /><path
       d="m 753.75,451.272 -18,0 0,4.5 18,0 0,-4.5 z"
       style="fill:#231f20;fill-opacity:1;fill-rule:nonzero;stroke:none"
       id="path274" /><path
       d="m 776.25,446.771 -18,0 0,4.5 18,0 0,-4.5 z"
       style="fill:#231f20;fill-opacity:1;fill-rule:nonzero;stroke:none"
       id="path276" /><path
       d="m 402.75,428.859 4.5,0 0,13.324 -4.5,0 0,-13.324 z m 0,17.913 4.5,0 0,4.5 -4.5,0 0,-4.5 z"
       style="fill:#231f20;fill-opacity:1;fill-rule:nonzero;stroke:none"
       id="path278" /><g
       id="g280"
       transform="translate(522,464.772)"><path
         d="m 0,0 0,4.5 -9,0 0,0 -4.5,0 0,-31.5 13.5,0 0,4.5 -9,0 0,22.5 9,0 z"
         style="fill:#231f20;fill-opacity:1;fill-rule:nonzero;stroke:none"
         id="path282" /></g><g
       id="g284"
       transform="translate(531,469.272)"><path
         d="m 0,0 0,-4.5 9,0 0,-22.5 -9,0 0,-4.5 9,0 0,0 4.5,0 L 13.5,0 0,0 z"
         style="fill:#231f20;fill-opacity:1;fill-rule:nonzero;stroke:none"
         id="path286" /></g><g
       id="g288"
       transform="translate(240.75,442.2725)"><path
         d="m 0,0 c -3.728,0 -6.75,3.022 -6.75,6.75 0,3.727 3.022,6.749 6.75,6.749 3.728,0 6.75,-3.022 6.75,-6.749 C 6.75,3.022 3.728,0 0,0 m 0,17.999 c -2.536,0 -4.868,-0.85 -6.75,-2.265 l 0,11.265 -4.5,0 0,-20.25 C -11.25,0.537 -6.213,-4.5 0,-4.5 6.213,-4.5 11.25,0.537 11.25,6.75 11.25,12.962 6.213,17.999 0,17.999"
         style="fill:#231f20;fill-opacity:1;fill-rule:nonzero;stroke:none"
         id="path290" /></g><g
       id="g292"
       transform="translate(317.25,442.2725)"><path
         d="m 0,0 c -3.728,0 -6.75,3.022 -6.75,6.75 0,3.727 3.022,6.749 6.75,6.749 3.728,0 6.75,-3.022 6.75,-6.749 C 6.75,3.022 3.728,0 0,0 m 11.25,6.75 c 0,6.212 -5.037,11.249 -11.25,11.249 -6.213,0 -11.25,-5.037 -11.25,-11.249 0,-6.213 5.037,-11.25 11.25,-11.25 2.536,0 4.868,0.85 6.75,2.265 l 0,-11.265 4.5,0 0,20.249 0,0.001 z"
         style="fill:#231f20;fill-opacity:1;fill-rule:nonzero;stroke:none"
         id="path294" /></g><g
       id="g296"
       transform="translate(274.5,451.2715)"><path
         d="m 0,0 -4.5,0 0,9 -13.5,0 0,-4.5 9,0 0,-4.5 -4.5,0 0,-4.5 4.5,0 0,-9 4.5,0 0,9 4.5,0 0,4.5 z"
         style="fill:#231f20;fill-opacity:1;fill-rule:nonzero;stroke:none"
         id="path298" /></g><g
       id="g300"
       transform="translate(193.5,464.7715)"><path
         d="m 0,0 0,-13.5 -9,0 0,9 -4.5,0 0,-13.5 13.5,0 0,-9 4.5,0 0,27 L 0,0 z"
         style="fill:#231f20;fill-opacity:1;fill-rule:nonzero;stroke:none"
         id="path302" /></g><g
       id="g304"
       transform="translate(139.5,446.7725)"><path
         d="M 0,0 C 6.213,0 11.25,5.037 11.25,11.25 11.25,17.462 6.213,22.499 0,22.499 l 0,-4.5 c 3.728,0 6.75,-3.022 6.75,-6.749 C 6.75,7.522 3.728,4.5 0,4.5 l 0,-0.001 -4.5,0 0,-13.5 4.5,0 0,10e-4 9,0 0,4.499 -9,0 L 0,0 z"
         style="fill:#231f20;fill-opacity:1;fill-rule:nonzero;stroke:none"
         id="path306" /></g><g
       id="g308"
       transform="translate(474.75,451.2725)"><path
         d="m 0,0 c -3.728,0 -6.75,3.022 -6.75,6.75 0,3.727 3.022,6.749 6.75,6.749 l 0,4.5 C -6.213,17.999 -11.25,12.962 -11.25,6.75 -11.25,0.537 -6.213,-4.5 0,-4.5 L 0,0 z"
         style="fill:#231f20;fill-opacity:1;fill-rule:nonzero;stroke:none"
         id="path310" /></g><g
       id="g312"
       transform="translate(600.75,464.7715)"><path
         d="m 0,0 0,0 4.5,0 0,4.5 -4.5,0 c -6.213,0 -11.25,-5.037 -11.25,-11.25 0,-1.601 0.34,-3.121 0.942,-4.5 -0.602,-1.378 -0.942,-2.899 -0.942,-4.5 C -11.25,-21.963 -6.213,-27 0,-27 l 4.5,0 0,4.5 -4.5,0 0,0 c -3.728,0 -6.75,3.022 -6.75,6.75 0,0.005 0.001,0.01 0.001,0.016 1.882,-1.416 4.213,-2.265 6.749,-2.265 l 0,4.5 c -1.996,0 -3.784,0.872 -5.021,2.249 C -3.784,-9.872 -1.996,-9 0,-9 l 0,4.5 c -2.536,0 -4.867,-0.85 -6.749,-2.265 0,0.005 -0.001,0.01 -0.001,0.015 C -6.75,-3.022 -3.728,0 0,0"
         style="fill:#231f20;fill-opacity:1;fill-rule:nonzero;stroke:none"
         id="path314" /></g><g
       id="g316"
       transform="translate(627.75,458.022)"><path
         d="m 0,0 c 0,6.213 -5.037,11.25 -11.25,11.25 l -4.5,0 0,-4.5 4.5,0 0,0 c 3.728,0 6.75,-3.022 6.75,-6.75 0,-0.005 -0.001,-0.01 -0.001,-0.016 -1.882,1.416 -4.213,2.265 -6.749,2.265 l 0,-4.5 c 1.996,0 3.784,-0.872 5.021,-2.249 -1.237,-1.378 -3.025,-2.25 -5.021,-2.25 l 0,-4.5 c 2.536,0 4.867,0.85 6.749,2.265 0,-0.005 0.001,-0.01 0.001,-0.015 0,-3.728 -3.022,-6.75 -6.75,-6.75 l 0,0 -4.5,0 0,-4.5 4.5,0 C -5.037,-20.25 0,-15.213 0,-9 0,-7.399 -0.34,-5.879 -0.942,-4.5 -0.34,-3.122 0,-1.601 0,0"
         style="fill:#231f20;fill-opacity:1;fill-rule:nonzero;stroke:none"
         id="path318" /></g><g
       id="g320"
       transform="translate(486.6133,464.7715)"><path
         d="m 0,0 c 3.728,0 6.75,-3.022 6.75,-6.75 0,-3.727 -3.022,-6.749 -6.75,-6.749 l 0,-4.5 c 6.213,0 11.25,5.037 11.25,11.249 C 11.25,-0.537 6.213,4.5 0,4.5 L 0,0 z"
         style="fill:#231f20;fill-opacity:1;fill-rule:nonzero;stroke:none"
         id="path322" /></g><g
       id="g324"
       transform="translate(792,442.2725)"><path
         d="m 0,0 c -3.728,0 -6.75,3.022 -6.75,6.75 0,3.727 3.022,6.749 6.75,6.749 l 0,4.5 C -6.213,17.999 -11.25,12.962 -11.25,6.75 -11.25,0.537 -6.213,-4.5 0,-4.5 L 0,0 z"
         style="fill:#231f20;fill-opacity:1;fill-rule:nonzero;stroke:none"
         id="path326" /></g><g
       id="g328"
       transform="translate(801,455.7715)"><path
         d="m 0,0 c 3.728,0 6.75,-3.022 6.75,-6.75 0,-3.727 -3.022,-6.749 -6.75,-6.749 l 0,-4.5 c 6.213,0 11.25,5.037 11.25,11.249 C 11.25,-0.537 6.213,4.5 0,4.5 L 0,0 z"
         style="fill:#231f20;fill-opacity:1;fill-rule:nonzero;stroke:none"
         id="path330" /></g><g
       id="g332"
       transform="translate(846,455.7715)"><path
         d="m 0,0 0,4.5 c -6.213,0 -11.25,-5.037 -11.25,-11.25 0,-6.212 5.037,-11.249 11.25,-11.249 l 0,4.5 c -3.728,0 -6.75,3.022 -6.75,6.749 C -6.75,-3.022 -3.728,0 0,0 m -15.75,-6.75 c 0,3.728 3.022,6.75 6.75,6.75 l 0,4.5 c -6.213,0 -11.25,-5.037 -11.25,-11.25 0,-6.212 5.037,-11.249 11.25,-11.249 l 0,4.5 c -3.728,0 -6.75,3.022 -6.75,6.749"
         style="fill:#231f20;fill-opacity:1;fill-rule:nonzero;stroke:none"
         id="path334" /></g><g
       id="g336"
       transform="translate(891,458.021)"><path
         d="m 0,0 c 0,-6.213 5.037,-11.25 11.25,-11.25 l 0,4.5 C 7.522,-6.75 4.5,-3.728 4.5,0 c 0,3.728 3.022,6.75 6.75,6.75 l 0,4.5 C 5.037,11.25 0,6.213 0,0 m 20.25,-20.25 4.5,0 0,31.5 -4.5,0 0,-31.5 z m -6.75,0 4.5,0 0,31.5 -4.5,0 0,-31.5 z"
         style="fill:#231f20;fill-opacity:1;fill-rule:nonzero;stroke:none"
         id="path338" /></g><g
       id="g340"
       transform="translate(942.75,464.7705)"><path
         d="m 0,0 0,4.5 c -6.213,0 -11.25,-5.037 -11.25,-11.25 0,-1.601 0.34,-3.121 0.942,-4.5 -0.602,-1.378 -0.942,-2.898 -0.942,-4.5 0,-6.212 5.037,-11.249 11.25,-11.249 l 0,4.5 c -3.728,0 -6.75,3.022 -6.75,6.749 0,0.006 0.001,0.011 0.001,0.016 1.882,-1.416 4.213,-2.265 6.749,-2.265 l 0,4.5 c -1.996,0 -3.785,0.872 -5.021,2.249 C -3.785,-9.872 -1.996,-9 0,-9 l 0,4.5 c -2.536,0 -4.867,-0.849 -6.749,-2.265 0,0.005 -0.001,0.01 -0.001,0.015 C -6.75,-3.022 -3.728,0 0,0"
         style="fill:#231f20;fill-opacity:1;fill-rule:nonzero;stroke:none"
         id="path342" /></g><g
       id="g344"
       transform="translate(967.5,460.2715)"><path
         d="M 0,0 C 0,3.728 3.022,6.75 6.75,6.75 10.478,6.75 13.5,3.728 13.5,0 L 18,0 C 18,6.213 12.963,11.25 6.75,11.25 0.537,11.25 -4.5,6.213 -4.5,0 l 0,-22.5 18.844,0 0,4.5 L 0,-18 0,0 z"
         style="fill:#231f20;fill-opacity:1;fill-rule:nonzero;stroke:none"
         id="path346" /></g><g
       id="g348"
       transform="translate(855,460.2715)"><path
         d="m 0,0 0,-4.5 c 3.728,0 6.75,-3.022 6.75,-6.75 0,-3.727 -3.022,-6.749 -6.75,-6.749 l 0,-4.5 c 6.213,0 11.25,5.037 11.25,11.249 C 11.25,-5.037 6.213,0 0,0 m 9,0 0,-4.5 c 3.728,0 6.75,-3.022 6.75,-6.75 0,-3.727 -3.022,-6.749 -6.75,-6.749 l 0,-4.5 c 6.213,0 11.25,5.037 11.25,11.249 C 20.25,-5.037 15.213,0 9,0"
         style="fill:#231f20;fill-opacity:1;fill-rule:nonzero;stroke:none"
         id="path350" /></g><g
       id="g352"
       transform="translate(571.5,469.2715)"><path
         d="m 0,0 0,-4.5 c 3.728,0 6.75,-3.022 6.75,-6.75 0,-3.727 -3.022,-6.749 -6.75,-6.749 l 0,-4.5 c 6.213,0 11.25,5.037 11.25,11.249 C 11.25,-5.037 6.213,0 0,0 m 0,-31.5 4.5,0 0,4.5 -4.5,0 0,-4.5 z"
         style="fill:#231f20;fill-opacity:1;fill-rule:nonzero;stroke:none"
         id="path354" /></g><g
       id="g356"
       transform="translate(674.8164,442.2817)"><path
         d="m 0,0 c -3.216,0.087 -5.869,2.419 -6.446,5.49 3.244,1.465 5.673,4.414 6.402,7.988 C -0.029,13.479 -0.015,13.48 0,13.48 3.643,13.382 6.565,10.405 6.565,6.74 6.565,3.074 3.643,0.099 0,0 M -10.839,9.001 C -10.854,9 -10.867,9 -10.883,8.999 c -3.64,0.099 -6.565,3.075 -6.565,6.741 0,3.665 2.925,6.641 6.565,6.739 3.218,-0.086 5.87,-2.419 6.446,-5.49 -3.244,-1.464 -5.672,-4.413 -6.402,-7.988 m 11.023,8.97 0,0.019 c -0.063,0 -0.122,-0.009 -0.185,-0.01 -0.014,0 -0.026,0.002 -0.04,0.002 -1.017,5.021 -5.379,8.817 -10.657,8.988 l 0,0.019 c -0.063,0 -0.122,-0.009 -0.185,-0.01 -0.061,0.001 -0.121,0.01 -0.183,0.01 l 0,-0.019 c -6.041,-0.196 -10.882,-5.141 -10.882,-11.23 0,-6.089 4.841,-11.035 10.882,-11.232 l 0,-0.018 c 0.062,0 0.122,0.008 0.183,0.009 0.014,0 0.028,-0.002 0.041,-0.002 1.017,-5.02 5.379,-8.816 10.657,-8.988 l 0,-0.018 c 0.063,0 0.122,0.008 0.185,0.009 0.062,-0.001 0.121,-0.009 0.184,-0.009 l 0,0.018 c 6.041,0.196 10.881,5.142 10.881,11.231 0,6.089 -4.84,11.035 -10.881,11.231 m -20.25,-22.393 4.5,0 0,4.324 -4.5,0 0,-4.324 z m 4.5,4.5 4.5,0 0,4.324 -4.5,0 0,-4.324 z m 24.75,26.824 -4.5,0 0,-4.324 4.5,0 0,4.324 z m -4.5,-4.5 -4.5,0 0,-4.324 4.5,0 0,4.324 z"
         style="fill:#231f20;fill-opacity:1;fill-rule:nonzero;stroke:none"
         id="path358" /></g><g
       id="g360"
       transform="translate(211.5,451.2705)"><path
         d="m 0,0 0,4.501 4.5,0 L 4.5,9 0,9 l 0,10e-4 -4.5,0 0,-13.5 4.5,0 0,-0.001 c 3.728,0 6.75,-3.022 6.75,-6.75 0,-3.727 -3.022,-6.749 -6.75,-6.749 l 0,-4.5 c 6.213,0 11.25,5.037 11.25,11.249 C 11.25,-5.037 6.213,0 0,0"
         style="fill:#231f20;fill-opacity:1;fill-rule:nonzero;stroke:none"
         id="path362" /></g><g
       id="g364"
       transform="translate(168.7285,449.0215)"><path
         d="m 0,0 c 2.74,2.052 4.521,5.314 4.521,9 0,6.213 -5.037,11.25 -11.25,11.25 l 0,-4.5 c 3.728,0 6.75,-3.022 6.75,-6.75 0,-3.727 -3.022,-6.749 -6.75,-6.749 l 0,-4.502 c 3.728,0 6.75,-3.022 6.75,-6.749 0,-3.728 -3.022,-6.75 -6.75,-6.75 l 0,-4.5 c 6.213,0 11.25,5.037 11.25,11.25 0,3.686 -1.781,6.948 -4.521,9"
         style="fill:#231f20;fill-opacity:1;fill-rule:nonzero;stroke:none"
         id="path366" /></g><g
       id="g368"
       transform="translate(1003.8926,455.7715)"><path
         d="m 0,0 6.387,0 c 2.924,-0.013 5.403,-1.887 6.328,-4.498 l -6.377,0 C 3.409,-4.49 0.926,-2.613 0,0 m 22.107,-4.498 -4.725,0 C 16.486,-0.091 13.015,3.381 8.607,4.275 L 6.387,4.5 c -0.01,0 -0.02,0.001 -0.03,0.001 L 6.357,4.5 0,4.5 C 0.928,7.12 3.42,9 6.357,9 l 0,4.5 c -5.442,0 -9.981,-3.865 -11.024,-9 l -4.163,0 0,-4.5 4.164,0 c 0.932,-4.592 4.665,-8.154 9.336,-8.859 l 1.668,-0.139 c 0.007,0 0.013,-0.001 0.019,-0.001 l 0,0.001 6.358,0 c -0.928,-2.62 -3.42,-4.5 -6.358,-4.5 l 0,-4.5 c 5.443,0 9.982,3.865 11.025,9 l 4.725,0 0,4.5 z"
         style="fill:#231f20;fill-opacity:1;fill-rule:nonzero;stroke:none"
         id="path370"
         sodipodi:nodetypes="cccccccccccccccccccccccccccc" /></g><g
       id="g380"
       transform="translate(222.9102,388.2705)"><path
         d="m 0,0 0,-4.5 c 3.728,0 6.75,-3.021 6.75,-6.75 0,-3.727 -3.022,-6.749 -6.75,-6.749 l 0,9 -4.5,0 0,-9 -4.5,0 0,13.501 -4.5,0 0,-13.5 -4.5,0 0,8.999 -4.5,0 0,-8.999 -4.5,0 0,13.5 -4.5,0 0,-13.5 -4.5,0 0,8.999 -4.5,0 0,-9.001 -4.5,0 0,18.001 -4.5,0 0,-22.5 9,10e-4 9,0 0,-10e-4 5.4,10e-4 12.6,-10e-4 9,0 0,10e-4 4.5,0 0,-10e-4 c 6.213,0 11.25,5.036 11.25,11.249 C 11.25,-5.037 6.213,0 0,0"
         style="fill:#231f20;fill-opacity:1;fill-rule:nonzero;stroke:none"
         id="path382" /></g><g
       id="g384"
       transform="translate(137.4102,370.2725)"><path
         d="m 0,0 c -3.729,0 -6.75,3.021 -6.75,6.749 0,3.728 3.021,6.749 6.75,6.749 3.727,0 6.749,-3.021 6.749,-6.749 C 6.749,3.021 3.727,0 0,0 m 6.75,17.999 0,-2.267 C 4.868,17.148 2.536,17.998 0,17.998 -6.213,17.998 -11.25,12.962 -11.25,6.749 -11.25,0.536 -6.213,-4.5 0,-4.5 c 2.536,0 4.868,0.85 6.75,2.266 l 0,-2.267 4.5,0 0,22.5 -4.5,0 z"
         style="fill:#231f20;fill-opacity:1;fill-rule:nonzero;stroke:none"
         id="path386" /></g><g
       id="g388"
       transform="translate(157.6602,392.7705)"><path
         d="m 0,0 0,4.5 -4.5,0 0,-35.999 4.5,0 0,26.999 9,0 L 9,0 0,0 z"
         style="fill:#231f20;fill-opacity:1;fill-rule:nonzero;stroke:none"
         id="path390" /></g><g
       id="g392"
       transform="translate(84.7285,388.2715)"><path
         d="M 0,0 -19.479,-19.317 -16.297,-22.5 3.182,-3.182 0,0 z"
         style="fill:#231f20;fill-opacity:1;fill-rule:nonzero;stroke:none"
         id="path394" /></g><g
       id="g396"
       transform="translate(96.9902,385.1699)"><path
         d="M 0,0 19.318,-19.479 22.5,-16.297 3.182,3.182 0,0 z"
         style="fill:#231f20;fill-opacity:1;fill-rule:nonzero;stroke:none"
         id="path398" /></g></g></svg>